<?xml version="1.0" encoding="UTF-8" standalone="no"?><!DOCTYPE svg PUBLIC "-//W3C//DTD SVG 1.1//EN" "http://www.w3.org/Graphics/SVG/1.1/DTD/svg11.dtd"><svg width="100%" height="100%" viewBox="0 0 1024 1024" version="1.1" xmlns="http://www.w3.org/2000/svg" xmlns:xlink="http://www.w3.org/1999/xlink" xml:space="preserve" xmlns:serif="http://www.serif.com/" style="fill-rule:evenodd;clip-rule:evenodd;stroke-linejoin:round;stroke-miterlimit:2;"><g id="Notebook"><path d="M789.344,288.738l0,504.321c0,25.966 -21.922,47.038 -49.058,47.038l-456.114,0c-1.49,0 -2.979,-0.107 -4.47,-0.213c-21.709,-1.916 -39.269,-17.24 -43.631,-37.353c-0.425,-2.342 -0.746,-4.683 -0.852,-7.13c-0.106,-0.745 -0.106,-1.597 -0.106,-2.342l0,-504.321c0,-3.299 0.319,-6.385 0.958,-9.471c2.342,-10.641 8.3,-19.901 16.707,-26.711c2.98,-2.342 6.172,-4.471 9.79,-6.066c6.491,-3.086 13.834,-4.79 21.603,-4.79l456.113,0c10.429,0 20.22,3.087 28.202,8.514c4.044,2.767 7.662,6.066 10.642,9.79c0.531,0.639 1.064,1.383 1.595,2.128c1.491,2.128 2.768,4.257 3.938,6.597c0.426,0.852 0.852,1.703 1.172,2.555c1.17,2.873 2.128,5.854 2.661,8.939c0.212,0.957 0.425,1.915 0.531,2.979c0.213,1.812 0.319,3.62 0.319,5.536Z" style="fill:#69b6a9;fill-rule:nonzero;"/><path d="M366.01,241.699l0,598.396l-83.858,0c-0.745,0 -1.597,0 -2.342,-0.106c-21.709,-1.064 -39.481,-16.814 -43.738,-37.459c-0.425,-2.343 -0.745,-4.683 -0.851,-7.13c-0.107,-0.746 -0.107,-1.597 -0.107,-2.343l0,-504.32c0,-3.299 0.319,-6.385 0.958,-9.471c2.235,-10.962 8.301,-20.539 16.708,-27.35c3.086,-2.343 6.385,-4.471 10.004,-5.96c4.337,-2.051 9.162,-3.131 14.143,-3.692c1.041,-0.147 2.089,-0.258 3.151,-0.341c0.704,-0.031 1.362,-0.224 2.074,-0.224l83.858,0Z" style="fill:#313333;fill-rule:nonzero;"/><path d="M780.753,265.095l0.001,0l0.002,0.002l0,509.653l-0.003,0.001l0,3.282c0,18.62 -21.043,37.498 -39.663,37.498l-462.192,0c-9.876,0 -17.958,-8.081 -17.958,-17.958l0,-9.014c0,-0.088 0.001,-0.175 0.002,-0.263l0,-508.141c-0.002,-0.199 -0.003,-0.397 -0.003,-0.596l0,-20.675c0,-25.997 20.518,-47.081 45.816,-47.081l428.182,0c25.297,0 45.816,21.084 45.816,47.081l0,6.212l0,-0.001Z" style="fill:#f2f2f2;"/><path d="M768.487,231.591l0,504.215c0,13.834 -5.96,26.286 -15.431,34.799c-8.3,7.768 -19.474,12.345 -31.713,12.345l-439.192,0c-6.597,0 -12.771,-1.383 -18.41,-3.831c-0.958,-0.321 -1.916,-0.746 -2.766,-1.277c-2.874,-1.491 -5.641,-3.193 -8.195,-5.214c-0.32,-0.321 -0.745,-0.532 -1.064,-0.852c-2.341,-2.022 -4.47,-4.257 -6.385,-6.705c-6.386,-7.982 -10.217,-18.198 -10.217,-29.265l0,-504.215c0,-26.073 21.07,-47.144 47.037,-47.144l439.192,0c24.264,0 44.377,18.411 46.932,42.248l0,0.107c0.106,1.597 0.212,3.193 0.212,4.789Z" style="fill:#69b6a9;fill-rule:nonzero;"/><path d="M383.718,184.446l0,598.502l-130.903,-0l0,-551.396c0,-25.996 21.084,-47.106 47.081,-47.106l83.822,-0Z" style="fill:#d6d7d7;fill-rule:nonzero;"/><path d="M366.01,184.445l0,598.504l-130.896,0l0,-551.359c0,-26.074 21.071,-47.144 47.038,-47.144l83.858,0l0,-0.001Z" style="fill:#505354;fill-rule:nonzero;"/></g><g id="Right-bell" serif:id="Right bell"><path d="M708.977,331.078l59.491,-9.468l0.019,29.258l-54.884,8.729l11.094,68.395c1.187,7.324 -2.461,11.031 -9.827,12.203l-34.369,5.47c-7.804,1.241 -12.085,-1.804 -13.342,-9.564c-0.123,-0.754 -0.638,-3.928 -1.753,-10.798c-0.461,-2.787 -2.987,-3.813 -5.79,-3.368l-35.056,5.579c-6.211,0.989 -11.035,-2.355 -12.037,-8.532l-6.111,-37.676l-21.634,3.443c-3.728,0.593 -6.213,-0.899 -6.815,-4.606l-4.451,-27.444c-0.458,-2.826 1.98,-6.299 4.823,-6.751c7.886,-1.253 21.772,-3.514 21.772,-3.514l-6.281,-38.727c-0.956,-5.896 2.878,-11.052 8.807,-11.996l35.035,-5.573c4.328,-0.69 4.514,-3.74 4.17,-6.028c-0.015,-0.101 -1.768,-10.897 -1.883,-11.609c-1.16,-7.148 3.595,-12.147 10.784,-13.29l32.031,-5.098c7.128,-1.134 13.574,3.076 14.724,10.165l11.483,70.8Z" style="fill:#0d6162;"/></g><g id="Left-bell" serif:id="Left bell"><path d="M446.662,641.388l-62.943,17.236l-0,-32.624l54.636,-14.954l-19.923,-72.766c-2.133,-7.793 1.362,-12.236 9.155,-14.37l36.364,-9.957c8.256,-2.259 13.221,0.535 15.48,8.791c0.22,0.802 1.145,4.179 3.147,11.489c0.82,2.964 3.66,3.779 6.627,2.967l37.088,-10.156c6.572,-1.799 12.156,1.256 13.955,7.828l10.975,40.084l22.89,-6.268c3.943,-1.079 6.794,0.245 7.873,4.189l7.995,29.198c0.823,3.008 -1.398,7.054 -4.405,7.877c-8.344,2.284 -23.03,6.36 -23.03,6.36l11.28,41.203c1.718,6.273 -1.808,12.308 -8.081,14.025l-37.069,10.148c-4.579,1.255 -4.424,4.58 -3.786,7.018c0.029,0.108 3.175,11.593 3.383,12.35c2.082,7.605 -2.455,13.577 -10.061,15.659l-33.889,9.28c-7.542,2.064 -14.972,-1.739 -17.038,-9.281l-20.623,-75.326Z" style="fill:#0d6162;"/></g></svg>