<?xml version="1.0" encoding="UTF-8" standalone="no"?><!DOCTYPE svg PUBLIC "-//W3C//DTD SVG 1.1//EN" "http://www.w3.org/Graphics/SVG/1.1/DTD/svg11.dtd"><svg width="100%" height="100%" viewBox="0 0 1024 1024" version="1.1" xmlns="http://www.w3.org/2000/svg" xmlns:xlink="http://www.w3.org/1999/xlink" xml:space="preserve" xmlns:serif="http://www.serif.com/" style="fill-rule:evenodd;clip-rule:evenodd;stroke-linejoin:round;stroke-miterlimit:2;"><g id="Layer1"><rect x="0" y="0" width="1024" height="1024"/></g><g id="Notebook"><path d="M789.344,288.738l-0,504.321c-0,25.966 -21.922,47.038 -49.058,47.038l-456.114,-0c-1.49,-0 -2.979,-0.107 -4.47,-0.213c-21.709,-1.916 -39.269,-17.24 -43.631,-37.353c-0.425,-2.342 -0.746,-4.683 -0.852,-7.13c-0.106,-0.745 -0.106,-1.597 -0.106,-2.342l-0,-504.321c-0,-3.299 0.319,-6.385 0.958,-9.471c2.342,-10.641 8.3,-19.901 16.707,-26.711c2.98,-2.342 6.172,-4.471 9.79,-6.066c6.491,-3.086 13.834,-4.79 21.603,-4.79l456.113,0c10.429,0 20.22,3.087 28.202,8.514c4.044,2.767 7.662,6.066 10.642,9.79c0.531,0.639 1.064,1.383 1.595,2.128c1.491,2.128 2.768,4.257 3.938,6.597c0.426,0.852 0.852,1.703 1.172,2.555c1.17,2.873 2.128,5.854 2.661,8.939c0.212,0.957 0.425,1.915 0.531,2.979c0.213,1.812 0.319,3.62 0.319,5.536l-0,0Z" style="fill:#a8a8a8;fill-rule:nonzero;"/><path d="M366.01,241.699l-0,598.396l-83.858,0c-0.745,0 -1.597,0 -2.342,-0.106c-21.709,-1.064 -39.481,-16.814 -43.738,-37.459c-0.425,-2.343 -0.745,-4.683 -0.851,-7.13c-0.107,-0.746 -0.107,-1.597 -0.107,-2.343l0,-504.32c0,-3.299 0.319,-6.385 0.958,-9.471c2.235,-10.962 8.301,-20.539 16.708,-27.35c3.086,-2.343 6.385,-4.471 10.004,-5.96c4.337,-2.051 9.162,-3.131 14.143,-3.692c1.041,-0.147 2.089,-0.258 3.151,-0.341c0.704,-0.031 1.362,-0.224 2.074,-0.224l83.858,0Z" style="fill:#333;fill-rule:nonzero;"/><path d="M780.753,265.095l0.001,0l0.002,0.002l-0,509.653l-0.003,0.001l0,3.282c0,18.62 -21.043,37.498 -39.663,37.498l-462.192,-0c-9.876,-0 -17.958,-8.081 -17.958,-17.958l0,-9.014c0,-0.088 0.001,-0.175 0.002,-0.263l0,-508.141c-0.002,-0.199 -0.003,-0.397 -0.003,-0.596l-0,-20.675c-0,-25.997 20.518,-47.081 45.816,-47.081l428.182,-0c25.297,-0 45.816,21.084 45.816,47.081l-0,6.212l-0,-0.001Z" style="fill:#f2f2f2;"/><path d="M768.487,231.591l0,504.215c0,13.834 -5.96,26.286 -15.431,34.799c-8.3,7.768 -19.474,12.345 -31.713,12.345l-439.192,0c-6.597,0 -12.771,-1.383 -18.41,-3.831c-0.958,-0.321 -1.916,-0.746 -2.766,-1.277c-2.874,-1.491 -5.641,-3.193 -8.195,-5.214c-0.32,-0.321 -0.745,-0.532 -1.064,-0.852c-2.341,-2.022 -4.47,-4.257 -6.385,-6.705c-6.386,-7.982 -10.217,-18.198 -10.217,-29.265l-0,-504.215c-0,-26.073 21.07,-47.144 47.037,-47.144l439.192,0c24.264,0 44.377,18.411 46.932,42.248l-0,0.107c0.106,1.597 0.212,3.193 0.212,4.789Z" style="fill:#a8a8a8;fill-rule:nonzero;"/><path d="M383.718,184.446l0,598.502l-130.903,-0l-0,-551.396c-0,-25.996 21.084,-47.106 47.081,-47.106l83.822,-0Z" style="fill:#d7d7d7;fill-rule:nonzero;"/><path d="M366.01,184.445l-0,598.504l-130.896,-0l0,-551.359c0,-26.074 21.071,-47.144 47.038,-47.144l83.858,-0l-0,-0.001Z" style="fill:#525252;fill-rule:nonzero;"/></g><g id="Right-bell" serif:id="Right bell"><path d="M604.292,350.145c-0,-0 -12.853,1.976 -20.151,3.072c-2.631,0.395 -4.919,3.599 -4.524,6.231c0.502,3.337 3.416,22.738 3.837,25.541c0.518,3.449 2.799,4.858 6.249,4.34c4.494,-0.676 20.023,-3.008 20.023,-3.008c0,-0 4.505,29.991 5.267,35.064c0.864,5.748 5.286,8.897 11.035,8.034c5.34,-0.802 17.532,-2.634 23.317,-3.503c4.162,-0.625 6.11,-2.94 5.485,-7.103c-0.702,-4.672 -16.095,-107.149 -17.051,-113.512c-0.628,-4.182 -3.28,-6.378 -7.461,-5.75c-4.851,0.729 -16.553,2.487 -23.183,3.482c-5.487,0.825 -9.081,5.582 -8.257,11.069c1.043,6.941 5.414,36.043 5.414,36.043Z" style="fill:#565656;"/><path d="M711.369,339.595l57.117,-8.582l0,27.148l-53.132,7.977l-3.985,-26.543Z" style="fill:#565656;"/><path d="M651.95,269.54l29.644,-4.453c6.598,-0.991 12.51,2.978 13.502,9.575l23.445,156.085c1.024,6.816 -2.384,10.23 -9.201,11.254l-31.81,4.778c-7.222,1.085 -11.145,-1.782 -12.23,-9.004c-0.686,-4.564 -22.78,-151.53 -23.449,-155.98c-0.999,-6.653 3.447,-11.256 10.099,-12.255Z" style="fill:#565656;"/></g><g id="Left-bell" serif:id="Left bell"><path d="M524.748,594.518c-0,-0 11.582,-3.215 18.162,-5.016c2.372,-0.649 4.123,-3.84 3.474,-6.212c-0.824,-3.009 -5.613,-20.5 -6.305,-23.027c-0.851,-3.11 -3.099,-4.154 -6.209,-3.303c-4.051,1.109 -18.052,4.943 -18.052,4.943c0,-0 -7.403,-27.039 -8.655,-31.612c-1.419,-5.183 -5.822,-7.592 -11.005,-6.173c-4.813,1.318 -15.806,4.328 -21.021,5.756c-3.752,1.027 -5.288,3.365 -4.261,7.117c1.153,4.213 26.448,96.602 28.019,102.338c1.032,3.77 3.705,5.498 7.476,4.465c4.372,-1.197 14.923,-4.086 20.9,-5.722c4.947,-1.354 7.728,-6.113 6.373,-11.06c-1.713,-6.258 -8.896,-32.494 -8.896,-32.494Z" style="fill:#565656;"/><path d="M489.785,673.699c5.998,-1.642 9.576,-6.352 7.934,-12.349c-1.098,-4.012 -37.392,-136.508 -38.518,-140.623c-1.782,-6.511 -5.697,-8.715 -12.208,-6.933c-8.113,2.222 -22.927,6.278 -28.678,7.852c-6.146,1.683 -8.902,5.187 -7.22,11.333c1.357,4.955 36.836,134.541 38.527,140.719c1.629,5.948 7.489,8.947 13.437,7.319c4.704,-1.288 20.018,-5.481 26.726,-7.318Z" style="fill:#565656;"/><path d="M421.059,591.938l6.55,23.93l-43.89,12.018l-0,-25.728l37.34,-10.22Z" style="fill:#565656;"/></g></svg>