<?xml version="1.0" encoding="UTF-8" standalone="no"?><!DOCTYPE svg PUBLIC "-//W3C//DTD SVG 1.1//EN" "http://www.w3.org/Graphics/SVG/1.1/DTD/svg11.dtd"><svg width="100%" height="100%" viewBox="0 0 1024 1024" version="1.1" xmlns="http://www.w3.org/2000/svg" xmlns:xlink="http://www.w3.org/1999/xlink" xml:space="preserve" xmlns:serif="http://www.serif.com/" style="fill-rule:evenodd;clip-rule:evenodd;stroke-linejoin:round;stroke-miterlimit:2;"><rect x="0" y="0" width="1024" height="1024"/><path d="M450.309,490.388c4.512,-3.378 10.116,-5.377 16.19,-5.377l0,-32.485c-14.921,-0 -27.017,-12.067 -27.017,-26.989c0,-14.921 12.096,-26.989 27.017,-26.989l0,-32.484c-14.921,-0 -27.017,-12.068 -27.017,-26.989c0,-14.92 12.096,-26.989 27.017,-26.989l0,-16.215c0,-28.485 25.548,-54.033 54.032,-54.033l324.194,-0c28.486,-0 54.033,25.547 54.033,54.033l0,432.258c0,28.486 -25.547,54.033 -54.033,54.033l-324.194,0c-28.484,0 -54.032,-25.548 -54.032,-54.033l0,-16.215c-14.921,0 -27.017,-12.069 -27.017,-26.989c0,-14.921 12.096,-26.989 27.017,-26.989l0,-32.484c-14.921,0 -27.017,-12.068 -27.017,-26.989c0,-14.922 12.096,-26.989 27.017,-26.989l0,-32.485c-6.074,0 -11.678,-1.999 -16.19,-5.377l-44.099,0l0,151.291c-0.028,23.703 -19.523,43.198 -43.226,43.226l-64.839,0c-23.703,-0.028 -43.198,-19.523 -43.226,-43.226l0,-21.612l-43.226,0c-23.702,-0.028 -43.198,-19.523 -43.225,-43.226l0,-86.453l-21.613,0c-11.856,0 -21.613,-9.755 -21.613,-21.612c0,-11.857 9.757,-21.612 21.613,-21.612l21.613,0l0,-86.453c0.027,-23.703 19.523,-43.198 43.225,-43.226l43.226,0l0,-21.612c0.028,-23.703 19.523,-43.198 43.226,-43.226l64.839,0c23.703,0.028 43.198,19.523 43.226,43.226l0,151.291l44.099,0Zm-87.325,194.515l0.027,-0.001l-0.014,-172.634c-0.001,-0.09 -0.013,-0.177 -0.013,-0.268c-0,-0.089 0.012,-0.177 0.013,-0.268l-0.013,-172.635l-64.839,0l-0,345.806l64.839,0Zm481.741,-389.032l-324.194,0l-0,432.258l324.194,0l-0,-432.258Zm-67.54,54.032c21.063,0 40.525,19.461 40.525,40.524l-0,54.032c-0,21.065 -19.462,40.525 -40.525,40.525l-189.114,0c-21.065,0 -40.524,-19.46 -40.524,-40.525l-0,-54.032c-0,-21.065 19.459,-40.524 40.524,-40.524l189.114,0Zm-13.509,54.032l-162.097,0l-0,27.017l162.097,0l-0,-27.017Zm-551.983,216.13l43.226,0l0,-216.13l-43.226,0l0,216.13Z" style="fill:url(#_Linear1);"/><defs><linearGradient id="_Linear1" x1="0" y1="0" x2="1" y2="0" gradientUnits="userSpaceOnUse" gradientTransform="matrix(3.30852e-14,540.322,-540.322,3.30852e-14,512,241.838)"><stop offset="0" style="stop-color:#a9a9a9;stop-opacity:1"/><stop offset="1" style="stop-color:#707070;stop-opacity:1"/></linearGradient></defs></svg>