<?xml version="1.0" encoding="UTF-8" standalone="no"?><!DOCTYPE svg PUBLIC "-//W3C//DTD SVG 1.1//EN" "http://www.w3.org/Graphics/SVG/1.1/DTD/svg11.dtd"><svg width="100%" height="100%" viewBox="0 0 4267 4267" version="1.1" xmlns="http://www.w3.org/2000/svg" xmlns:xlink="http://www.w3.org/1999/xlink" xml:space="preserve" xmlns:serif="http://www.serif.com/" style="fill-rule:evenodd;clip-rule:evenodd;stroke-linejoin:round;stroke-miterlimit:2;"><g id="Notebook"><path d="M3253.39,1104.65l0.005,0l0.008,0.006l0,2123.72l-0.011,0.007l0,13.673c0,77.589 -87.688,156.254 -165.277,156.254l-1925.95,0c-41.152,0 -74.828,-33.671 -74.828,-74.828l0,-37.561c0,-0.367 0.003,-0.733 0.008,-1.098l0,-2117.42c-0.01,-0.827 -0.015,-1.655 -0.015,-2.484l0,-86.152c0,-108.328 85.5,-196.187 190.915,-196.187l1784.23,0c105.415,0 190.915,87.859 190.915,196.187l0,25.884l0,-0.001Z" style="fill:#f2f2f2;"/></g></svg>