<?xml version="1.0" encoding="UTF-8" standalone="no"?><!DOCTYPE svg PUBLIC "-//W3C//DTD SVG 1.1//EN" "http://www.w3.org/Graphics/SVG/1.1/DTD/svg11.dtd"><svg width="100%" height="100%" viewBox="0 0 4267 4267" version="1.1" xmlns="http://www.w3.org/2000/svg" xmlns:xlink="http://www.w3.org/1999/xlink" xml:space="preserve" xmlns:serif="http://www.serif.com/" style="fill-rule:evenodd;clip-rule:evenodd;stroke-linejoin:round;stroke-miterlimit:2;"><g id="Right-bell" serif:id="Right bell"><path d="M2406.74,1432.83c-0,-0 -62.273,9.575 -97.632,14.885c-12.751,1.916 -23.835,17.437 -21.92,30.188c2.429,16.17 16.549,110.17 18.589,123.753c2.51,16.711 13.563,23.535 30.275,21.024c21.775,-3.27 97.018,-14.572 97.018,-14.572c-0,-0 21.827,145.311 25.518,169.887c4.184,27.854 25.612,43.111 53.466,38.928c25.872,-3.886 84.946,-12.76 112.971,-16.97c20.169,-3.029 29.607,-14.249 26.578,-34.416c-3.401,-22.638 -77.984,-519.15 -82.615,-549.98c-3.043,-20.262 -15.89,-30.902 -36.151,-27.86c-23.5,3.531 -80.201,12.048 -112.325,16.873c-26.585,3.993 -43.997,27.044 -40.004,53.629c5.052,33.631 26.232,174.631 26.232,174.631Z" style="fill:#0d6162;"/><path d="M2925.54,1381.72l276.74,-41.581l0,131.533l-257.434,38.65l-19.306,-128.602Z" style="fill:#0d6162;"/><path d="M2637.64,1042.29l143.63,-21.574c31.966,-4.802 60.614,14.429 65.416,46.394l113.598,756.247c4.961,33.028 -11.552,49.567 -44.58,54.528l-154.123,23.151c-34.992,5.255 -54.002,-8.636 -59.259,-43.628c-3.322,-22.111 -110.372,-734.18 -113.61,-755.741c-4.842,-32.232 16.697,-54.534 48.928,-59.377Z" style="fill:#0d6162;"/></g></svg>