<?xml version="1.0" encoding="UTF-8" standalone="no"?><!DOCTYPE svg PUBLIC "-//W3C//DTD SVG 1.1//EN" "http://www.w3.org/Graphics/SVG/1.1/DTD/svg11.dtd"><svg width="100%" height="100%" viewBox="0 0 4267 4267" version="1.1" xmlns="http://www.w3.org/2000/svg" xmlns:xlink="http://www.w3.org/1999/xlink" xml:space="preserve" xmlns:serif="http://www.serif.com/" style="fill-rule:evenodd;clip-rule:evenodd;stroke-linejoin:round;stroke-miterlimit:2;"><g id="Left-bell" serif:id="Left bell"><path d="M2316.68,2552.35c0,-0 58.947,-16.358 92.43,-25.526c12.074,-3.305 20.986,-19.54 17.68,-31.615c-4.193,-15.313 -28.563,-104.328 -32.086,-117.191c-4.333,-15.824 -15.77,-21.14 -31.596,-16.807c-20.62,5.645 -91.873,25.154 -91.873,25.154c-0,0 -37.676,-137.607 -44.049,-160.881c-7.22,-26.377 -29.628,-38.637 -56.005,-31.414c-24.498,6.708 -80.44,22.025 -106.982,29.29c-19.097,5.23 -26.914,17.126 -21.685,36.225c5.868,21.438 134.602,491.628 142.594,520.821c5.253,19.188 18.857,27.978 38.046,22.724c22.253,-6.092 75.949,-20.793 106.368,-29.122c25.176,-6.892 39.327,-31.109 32.434,-56.285c-8.72,-31.85 -45.276,-165.373 -45.276,-165.373Z" style="fill:#0d6162;"/><path d="M2138.75,2955.32c30.524,-8.356 48.737,-32.327 40.38,-62.85c-5.59,-20.416 -190.296,-694.724 -196.028,-715.664c-9.072,-33.135 -28.993,-44.354 -62.13,-35.282c-41.289,11.305 -116.682,31.946 -145.951,39.959c-31.277,8.565 -45.304,26.4 -36.742,57.677c6.905,25.217 187.466,684.713 196.074,716.153c8.288,30.271 38.113,45.535 68.382,37.247c23.938,-6.554 101.878,-27.894 136.015,-37.24Z" style="fill:#0d6162;"/><path d="M1788.99,2539.22l33.332,121.786l-223.368,61.164l-0,-130.936l190.036,-52.014Z" style="fill:#0d6162;"/></g></svg>