<?xml version="1.0" encoding="UTF-8" standalone="no"?><!DOCTYPE svg PUBLIC "-//W3C//DTD SVG 1.1//EN" "http://www.w3.org/Graphics/SVG/1.1/DTD/svg11.dtd"><svg width="100%" height="100%" viewBox="0 0 4267 4267" version="1.1" xmlns="http://www.w3.org/2000/svg" xmlns:xlink="http://www.w3.org/1999/xlink" xml:space="preserve" xmlns:serif="http://www.serif.com/" style="fill-rule:evenodd;clip-rule:evenodd;stroke-linejoin:round;stroke-miterlimit:2;"><g id="Notebook"><path d="M3289.19,1203.17l0,2101.5c0,108.2 -91.349,196.006 -204.426,196.006l-1900.62,0c-6.211,0 -12.417,-0.443 -18.628,-0.886c-90.463,-7.983 -163.632,-71.84 -181.812,-155.649c-1.771,-9.76 -3.105,-19.514 -3.548,-29.711c-0.443,-3.106 -0.443,-6.654 -0.443,-9.76l0,-2101.5c0,-13.746 1.329,-26.606 3.991,-39.466c9.76,-44.343 34.589,-82.928 69.62,-111.306c12.417,-9.759 25.72,-18.628 40.795,-25.277c27.048,-12.86 57.646,-19.957 90.02,-19.957l1900.62,0c43.457,0 84.257,12.86 117.517,35.475c16.852,11.531 31.926,25.277 44.343,40.794c2.215,2.663 4.434,5.763 6.649,8.869c6.211,8.868 11.531,17.737 16.408,27.491c1.777,3.549 3.549,7.097 4.883,10.646c4.877,11.969 8.869,24.391 11.088,37.246c0.886,3.991 1.772,7.982 2.215,12.417c0.886,7.55 1.329,15.085 1.329,23.068l-0.001,0Z" style="fill:#69b6a9;fill-rule:nonzero;"/><path d="M1525.16,1007.16l0,2493.51l-349.435,0c-3.105,0 -6.654,0 -9.759,-0.443c-90.463,-4.435 -164.518,-70.063 -182.255,-156.092c-1.771,-9.76 -3.105,-19.514 -3.548,-29.711c-0.443,-3.106 -0.443,-6.654 -0.443,-9.76l0,-2101.5c0,-13.746 1.329,-26.606 3.991,-39.466c9.312,-45.677 34.589,-85.586 69.62,-113.968c12.86,-9.76 26.606,-18.629 41.686,-24.835c18.073,-8.543 38.18,-13.046 58.937,-15.384c4.338,-0.613 8.703,-1.072 13.127,-1.419c2.935,-0.128 5.678,-0.934 8.644,-0.934l349.435,0Z" style="fill:#313333;fill-rule:nonzero;"/></g></svg>