<?xml version="1.0" encoding="UTF-8" standalone="no"?><!DOCTYPE svg PUBLIC "-//W3C//DTD SVG 1.1//EN" "http://www.w3.org/Graphics/SVG/1.1/DTD/svg11.dtd"><svg width="100%" height="100%" viewBox="0 0 4267 4267" version="1.1" xmlns="http://www.w3.org/2000/svg" xmlns:xlink="http://www.w3.org/1999/xlink" xml:space="preserve" xmlns:serif="http://www.serif.com/" style="fill-rule:evenodd;clip-rule:evenodd;stroke-linejoin:round;stroke-miterlimit:2;"><g id="Notebook"><path d="M3202.28,965.038l0,2101.06c0,57.646 -24.834,109.534 -64.3,145.009c-34.588,32.369 -81.151,51.44 -132.148,51.44l-1830.11,0c-27.491,0 -53.217,-5.763 -76.717,-15.966c-3.991,-1.334 -7.983,-3.105 -11.526,-5.32c-11.974,-6.211 -23.505,-13.303 -34.145,-21.728c-1.334,-1.334 -3.106,-2.215 -4.435,-3.549c-9.754,-8.426 -18.628,-17.737 -26.605,-27.94c-26.612,-33.26 -42.577,-75.831 -42.577,-121.946l0,-2101.06c0,-108.648 87.8,-196.448 196.005,-196.448l1830.11,0c101.108,0 184.917,76.717 195.562,176.048l-0,0.443c0.443,6.654 0.886,13.308 0.886,19.957Z" style="fill:#69b6a9;fill-rule:nonzero;"/><path d="M1598.95,768.584l0,2493.95l-545.472,-0l0,-2297.66c0,-108.328 87.859,-196.293 196.187,-196.293l349.285,-0Z" style="fill:#d6d7d7;fill-rule:nonzero;"/><path d="M1525.16,768.582l0,2493.96l-545.44,0l0,-2297.51c0,-108.648 87.8,-196.448 196.005,-196.448l349.435,0l0,-0.002Z" style="fill:#505354;fill-rule:nonzero;"/></g></svg>