<?xml version="1.0" encoding="UTF-8" standalone="no"?><!DOCTYPE svg PUBLIC "-//W3C//DTD SVG 1.1//EN" "http://www.w3.org/Graphics/SVG/1.1/DTD/svg11.dtd"><svg width="100%" height="100%" viewBox="0 0 1024 1024" version="1.1" xmlns="http://www.w3.org/2000/svg" xmlns:xlink="http://www.w3.org/1999/xlink" xml:space="preserve" xmlns:serif="http://www.serif.com/" style="fill-rule:evenodd;clip-rule:evenodd;stroke-linejoin:round;stroke-miterlimit:2;"><g id="Right-bell" serif:id="Right bell"><path d="M708.977,331.078l59.491,-9.468l0.019,29.258l-54.884,8.729l11.094,68.395c1.187,7.324 -2.461,11.031 -9.827,12.203l-34.369,5.47c-7.804,1.241 -12.085,-1.804 -13.342,-9.564c-0.123,-0.754 -0.638,-3.928 -1.753,-10.798c-0.461,-2.787 -2.987,-3.813 -5.79,-3.368l-35.056,5.579c-6.211,0.989 -11.035,-2.355 -12.037,-8.532l-6.111,-37.676l-21.634,3.443c-3.728,0.593 -6.213,-0.899 -6.815,-4.606l-4.451,-27.444c-0.458,-2.826 1.98,-6.299 4.823,-6.751c7.886,-1.253 21.772,-3.514 21.772,-3.514l-6.281,-38.727c-0.956,-5.896 2.878,-11.052 8.807,-11.996l35.035,-5.573c4.328,-0.69 4.514,-3.74 4.17,-6.028c-0.015,-0.101 -1.768,-10.897 -1.883,-11.609c-1.16,-7.148 3.595,-12.147 10.784,-13.29l32.031,-5.098c7.128,-1.134 13.574,3.076 14.724,10.165l11.483,70.8Z" style="fill:#0d6162;"/></g></svg>