<?xml version="1.0" encoding="UTF-8" standalone="no"?><!DOCTYPE svg PUBLIC "-//W3C//DTD SVG 1.1//EN" "http://www.w3.org/Graphics/SVG/1.1/DTD/svg11.dtd"><svg width="100%" height="100%" viewBox="0 0 1024 1024" version="1.1" xmlns="http://www.w3.org/2000/svg" xmlns:xlink="http://www.w3.org/1999/xlink" xml:space="preserve" xmlns:serif="http://www.serif.com/" style="fill-rule:evenodd;clip-rule:evenodd;stroke-linejoin:round;stroke-miterlimit:2;"><g id="Right-bell" serif:id="Right bell"><path d="M713.853,324.429l54.617,-8.692l0.017,26.861l-50.387,8.013l10.185,62.791c1.09,6.724 -2.259,10.128 -9.022,11.204l-31.553,5.021c-7.164,1.14 -11.095,-1.656 -12.249,-8.78c-0.113,-0.692 -0.585,-3.606 -1.609,-9.913c-0.423,-2.559 -2.742,-3.501 -5.316,-3.092l-32.183,5.122c-5.702,0.908 -10.131,-2.162 -11.051,-7.833l-5.61,-34.589l-19.862,3.161c-3.422,0.544 -5.704,-0.826 -6.256,-4.229l-4.087,-25.195c-0.42,-2.595 1.818,-5.783 4.428,-6.198c7.24,-1.151 19.988,-3.226 19.988,-3.226l-5.766,-35.554c-0.878,-5.413 2.642,-10.147 8.085,-11.013l32.165,-5.117c3.973,-0.633 4.144,-3.433 3.828,-5.534c-0.014,-0.093 -1.623,-10.004 -1.729,-10.658c-1.065,-6.562 3.301,-11.151 9.901,-12.201l29.406,-4.68c6.544,-1.041 12.462,2.824 13.518,9.332l10.542,64.999Z" style="fill:#0d6162;"/></g></svg>