<?xml version="1.0" encoding="UTF-8" standalone="no"?><!DOCTYPE svg PUBLIC "-//W3C//DTD SVG 1.1//EN" "http://www.w3.org/Graphics/SVG/1.1/DTD/svg11.dtd"><svg width="100%" height="100%" viewBox="0 0 1024 1024" version="1.1" xmlns="http://www.w3.org/2000/svg" xmlns:xlink="http://www.w3.org/1999/xlink" xml:space="preserve" xmlns:serif="http://www.serif.com/" style="fill-rule:evenodd;clip-rule:evenodd;stroke-linejoin:round;stroke-miterlimit:2;"><g id="Left-bell" serif:id="Left bell"><path d="M446.662,641.388l-62.943,17.236l-0,-32.624l54.636,-14.954l-19.923,-72.766c-2.133,-7.793 1.362,-12.236 9.155,-14.37l36.364,-9.957c8.256,-2.259 13.221,0.535 15.48,8.791c0.22,0.802 1.145,4.179 3.147,11.489c0.82,2.964 3.66,3.779 6.627,2.967l37.088,-10.156c6.572,-1.799 12.156,1.256 13.955,7.828l10.975,40.084l22.89,-6.268c3.943,-1.079 6.794,0.245 7.873,4.189l7.995,29.198c0.823,3.008 -1.398,7.054 -4.405,7.877c-8.344,2.284 -23.03,6.36 -23.03,6.36l11.28,41.203c1.718,6.273 -1.808,12.308 -8.081,14.025l-37.069,10.148c-4.579,1.255 -4.424,4.58 -3.786,7.018c0.029,0.108 3.175,11.593 3.383,12.35c2.082,7.605 -2.455,13.577 -10.061,15.659l-33.889,9.28c-7.542,2.064 -14.972,-1.739 -17.038,-9.281l-20.623,-75.326Z" style="fill:#0d6162;"/></g></svg>